<svg width="14" height="14" viewBox="0 0 14 14" fill="none" xmlns="http://www.w3.org/2000/svg">
<mask id="path-1-inside-1_3_92" fill="white">
<path d="M13.5511 5.18655C13.5379 5.14568 13.5134 5.10933 13.4806 5.08165C13.4477 5.05397 13.4077 5.03605 13.3652 5.02993L9.10964 4.41174L7.20651 0.555395C7.18516 0.519688 7.1549 0.49013 7.11871 0.469606C7.08252 0.449082 7.04162 0.438293 7.00001 0.438293C6.95841 0.438293 6.91751 0.449082 6.88132 0.469606C6.84513 0.49013 6.81487 0.519688 6.79351 0.555395L4.89039 4.41174L0.634388 5.02993C0.591625 5.03589 0.551402 5.05377 0.518318 5.08152C0.485234 5.10926 0.460623 5.14575 0.447298 5.18682C0.433973 5.22789 0.432472 5.27189 0.442965 5.31377C0.453458 5.35565 0.475523 5.39374 0.506638 5.42368L3.58751 8.42427L2.85951 12.6628C2.8521 12.7052 2.85672 12.7488 2.87286 12.7888C2.88899 12.8287 2.91599 12.8633 2.9508 12.8886C2.9856 12.914 3.02681 12.9291 3.06976 12.9322C3.11271 12.9353 3.15567 12.9263 3.19376 12.9062L7.00001 10.9045L10.8063 12.9062C10.8443 12.9262 10.8871 12.9352 10.93 12.9321C10.9728 12.929 11.014 12.914 11.0487 12.8888C11.0835 12.8635 11.1105 12.8291 11.1267 12.7893C11.143 12.7495 11.1477 12.706 11.1405 12.6636L10.4138 8.42449L13.4932 5.4228C13.5239 5.39271 13.5455 5.35466 13.5558 5.31292C13.566 5.27119 13.5644 5.22742 13.5511 5.18655Z"/>
</mask>
<path d="M13.5511 5.18655L12.5999 5.4951L12.6 5.49532L13.5511 5.18655ZM13.3652 5.02993L13.2214 6.01954L13.2227 6.01973L13.3652 5.02993ZM9.10964 4.41174L8.21289 4.85429L8.44557 5.32577L8.96588 5.40135L9.10964 4.41174ZM7.20651 0.555395L8.10326 0.112846L8.08541 0.0766697L8.0647 0.0420487L7.20651 0.555395ZM7.00001 0.438293V-0.561707V0.438293ZM6.79351 0.555395L5.93533 0.0420487L5.91462 0.0766698L5.89677 0.112847L6.79351 0.555395ZM4.89039 4.41174L5.03413 5.40135L5.55445 5.32578L5.78713 4.85429L4.89039 4.41174ZM0.634388 5.02993L0.772586 6.02035L0.778131 6.01954L0.634388 5.02993ZM0.506638 5.42368L1.20436 4.70728L1.19997 4.70305L0.506638 5.42368ZM3.58751 8.42427L4.57308 8.59355L4.66215 8.07499L4.28523 7.70789L3.58751 8.42427ZM2.85951 12.6628L3.84458 12.835L3.84508 12.832L2.85951 12.6628ZM3.19376 12.9062L2.72829 12.0212L2.72773 12.0215L3.19376 12.9062ZM7.00001 10.9045L7.46549 10.0194L7.00001 9.77459L6.53454 10.0194L7.00001 10.9045ZM10.8063 12.9062L10.3408 13.7913L10.341 13.7914L10.8063 12.9062ZM11.1405 12.6636L12.1263 12.4956L12.1261 12.4947L11.1405 12.6636ZM10.4138 8.42449L9.71581 7.70841L9.33939 8.07534L9.4282 8.59345L10.4138 8.42449ZM13.4932 5.4228L14.1912 6.13888L14.1934 6.13676L13.4932 5.4228ZM14.5023 4.87801C14.4314 4.65933 14.3006 4.46493 14.1248 4.31683L12.8363 5.84647C12.7262 5.75374 12.6443 5.63202 12.5999 5.4951L14.5023 4.87801ZM14.1248 4.31683C13.949 4.16873 13.7352 4.07287 13.5077 4.04012L13.2227 6.01973C13.0803 5.99922 12.9464 5.9392 12.8363 5.84647L14.1248 4.31683ZM13.509 4.04031L9.2534 3.42212L8.96588 5.40135L13.2214 6.01954L13.509 4.04031ZM10.0064 3.96919L8.10326 0.112846L6.30977 0.997943L8.21289 4.85429L10.0064 3.96919ZM8.0647 0.0420487C7.95457 -0.142049 7.7986 -0.294445 7.61199 -0.400263L6.62543 1.33948C6.51121 1.27471 6.41574 1.18143 6.34833 1.06874L8.0647 0.0420487ZM7.61199 -0.400263C7.42539 -0.506082 7.21453 -0.561707 7.00001 -0.561707V1.43829C6.86871 1.43829 6.73965 1.40425 6.62543 1.33948L7.61199 -0.400263ZM7.00001 -0.561707C6.78549 -0.561707 6.57464 -0.506082 6.38804 -0.400263L7.3746 1.33948C7.26038 1.40425 7.13132 1.43829 7.00001 1.43829V-0.561707ZM6.38804 -0.400263C6.20143 -0.294445 6.04546 -0.142049 5.93533 0.0420487L7.6517 1.06874C7.58429 1.18143 7.48882 1.27471 7.3746 1.33948L6.38804 -0.400263ZM5.89677 0.112847L3.99364 3.96919L5.78713 4.85429L7.69026 0.997943L5.89677 0.112847ZM4.74665 3.42212L0.490646 4.04031L0.778131 6.01954L5.03413 5.40135L4.74665 3.42212ZM0.496193 4.03952C0.267598 4.07142 0.0525915 4.16698 -0.124256 4.31529L1.16089 5.84774C1.05021 5.94056 0.915651 6.00037 0.772584 6.02033L0.496193 4.03952ZM-0.124256 4.31529C-0.301104 4.4636 -0.432662 4.65867 -0.503891 4.87822L1.39849 5.49543C1.35391 5.63283 1.27157 5.75492 1.16089 5.84774L-0.124256 4.31529ZM-0.503891 4.87822C-0.57512 5.09776 -0.583147 5.33291 -0.527055 5.5568L1.41298 5.07074C1.44809 5.21086 1.44307 5.35803 1.39849 5.49543L-0.503891 4.87822ZM-0.527055 5.5568C-0.470963 5.78068 -0.353014 5.98427 -0.18669 6.1443L1.19997 4.70305C1.30406 4.80321 1.37788 4.93062 1.41298 5.07074L-0.527055 5.5568ZM-0.191073 6.14005L2.8898 9.14065L4.28523 7.70789L1.20435 4.7073L-0.191073 6.14005ZM2.60195 8.25499L1.87395 12.4935L3.84508 12.832L4.57308 8.59355L2.60195 8.25499ZM1.87445 12.4906C1.83485 12.7171 1.85954 12.9502 1.94572 13.1635L3.79999 12.414C3.85391 12.5474 3.86935 12.6933 3.84457 12.835L1.87445 12.4906ZM1.94572 13.1635C2.0319 13.3767 2.17613 13.5615 2.36203 13.6969L3.53957 12.0803C3.65586 12.165 3.74608 12.2806 3.79999 12.414L1.94572 13.1635ZM2.36203 13.6969C2.54793 13.8323 2.76806 13.9129 2.99746 13.9296L3.14207 11.9348C3.28557 11.9452 3.42328 11.9956 3.53957 12.0803L2.36203 13.6969ZM2.99746 13.9296C3.22685 13.9462 3.45631 13.8982 3.6598 13.791L2.72773 12.0215C2.85503 11.9544 2.99857 11.9244 3.14207 11.9348L2.99746 13.9296ZM3.65924 13.7913L7.46549 11.7895L6.53454 10.0194L2.72829 12.0212L3.65924 13.7913ZM6.53454 11.7895L10.3408 13.7913L11.2717 12.0212L7.46549 10.0194L6.53454 11.7895ZM10.341 13.7914C10.5441 13.8982 10.773 13.946 11.0019 13.9295L10.8581 11.9347C11.0013 11.9244 11.1445 11.9543 11.2716 12.0211L10.341 13.7914ZM11.0019 13.9295C11.2307 13.913 11.4504 13.8329 11.6361 13.6981L10.4614 12.0795C10.5775 11.9951 10.715 11.945 10.8581 11.9347L11.0019 13.9295ZM11.6361 13.6981C11.8218 13.5633 11.9662 13.3793 12.0528 13.1668L10.2007 12.4118C10.2549 12.2789 10.3452 12.1638 10.4614 12.0795L11.6361 13.6981ZM12.0528 13.1668C12.1394 12.9543 12.1649 12.7218 12.1263 12.4956L10.1547 12.8317C10.1306 12.6902 10.1465 12.5447 10.2007 12.4118L12.0528 13.1668ZM12.1261 12.4947L11.3994 8.25553L9.4282 8.59345L10.1549 12.8326L12.1261 12.4947ZM11.1118 9.14057L14.1912 6.13888L12.7952 4.70672L9.71581 7.70841L11.1118 9.14057ZM14.1934 6.13676C14.3569 5.97641 14.4724 5.77364 14.527 5.55123L12.5846 5.07462C12.6187 4.93568 12.6908 4.80901 12.793 4.70884L14.1934 6.13676ZM14.527 5.55123C14.5815 5.32883 14.573 5.0956 14.5023 4.87778L12.6 5.49532C12.5558 5.35924 12.5505 5.21355 12.5846 5.07462L14.527 5.55123Z" fill="#FFC045" mask="url(#path-1-inside-1_3_92)"/>
</svg>
