<svg width="14" height="14" viewBox="0 0 14 14" fill="none" xmlns="http://www.w3.org/2000/svg">
<path d="M13.5511 5.18655C13.5379 5.14568 13.5134 5.10933 13.4806 5.08165C13.4477 5.05397 13.4077 5.03605 13.3652 5.02993L9.10964 4.41174L7.20651 0.555395C7.18516 0.519688 7.1549 0.49013 7.11871 0.469606C7.08252 0.449082 7.04162 0.438293 7.00001 0.438293C6.95841 0.438293 6.91751 0.449082 6.88132 0.469606C6.84513 0.49013 6.81487 0.519688 6.79351 0.555395L4.89039 4.41174L0.634388 5.02993C0.591625 5.03589 0.551402 5.05377 0.518318 5.08152C0.485234 5.10926 0.460623 5.14575 0.447298 5.18682C0.433973 5.22789 0.432472 5.27189 0.442965 5.31377C0.453458 5.35565 0.475523 5.39374 0.506638 5.42368L3.58751 8.42427L2.85951 12.6628C2.8521 12.7052 2.85672 12.7488 2.87286 12.7888C2.88899 12.8287 2.91599 12.8633 2.9508 12.8886C2.9856 12.914 3.02681 12.9291 3.06976 12.9322C3.11271 12.9353 3.15567 12.9263 3.19376 12.9062L7.00001 10.9045L10.8063 12.9062C10.8443 12.9262 10.8871 12.9352 10.93 12.9321C10.9728 12.929 11.014 12.914 11.0487 12.8888C11.0835 12.8635 11.1105 12.8291 11.1267 12.7893C11.143 12.7495 11.1477 12.706 11.1405 12.6636L10.4138 8.42449L13.4932 5.4228C13.5239 5.39271 13.5455 5.35466 13.5558 5.31292C13.566 5.27119 13.5644 5.22742 13.5511 5.18655Z" fill="#FFC045"/>
</svg>
