<svg width="27" height="27" viewBox="0 0 27 27" fill="none" xmlns="http://www.w3.org/2000/svg">
<g id="YoutubeLogo">
<path id="Vector" d="M2.04367 12.1609C2.80769 14.9799 3.50792 16.5656 3.92984 17.3637C4.04397 17.582 4.20048 17.7701 4.38643 17.9123C4.57238 18.0546 4.7824 18.147 4.99909 18.1818C8.07323 18.6569 12.6113 17.3911 12.6113 17.3911C12.6113 17.3911 17.1675 16.1921 19.581 14.2297C19.7505 14.0902 19.8851 13.9045 19.9738 13.6878C20.0624 13.4711 20.1026 13.2297 20.0908 12.9837C20.052 12.0817 19.8557 10.3594 19.0917 7.54047C18.3277 4.72151 17.6274 3.13585 17.2055 2.3377C17.0914 2.11942 16.9349 1.93135 16.7489 1.78907C16.563 1.6468 16.3529 1.55442 16.1363 1.51958C13.0621 1.04446 8.52402 2.31033 8.52402 2.31033C8.52402 2.31033 3.96785 3.50926 1.55432 5.47168C1.38487 5.61117 1.25024 5.79696 1.16158 6.01366C1.07293 6.23035 1.0328 6.47172 1.04452 6.71776C1.08336 7.61973 1.27966 9.34199 2.04367 12.1609Z" fill="#121212" stroke="#7B7676" stroke-width="2" stroke-linecap="round" stroke-linejoin="round"/>
<path id="Vector_2" d="M6.77417 14.4756C6.77417 17.3963 7.03522 19.1099 7.23367 19.9907C7.28672 20.2312 7.38859 20.4537 7.53084 20.6396C7.6731 20.8256 7.85164 20.9697 8.05168 21.06C10.8945 22.3227 15.6057 22.2881 15.6057 22.2881C15.6057 22.2881 20.3168 22.3227 23.1597 21.06C23.3597 20.9697 23.5383 20.8256 23.6805 20.6396C23.8228 20.4537 23.9246 20.2312 23.9777 19.9907C24.1762 19.1099 24.4372 17.3963 24.4372 14.4756C24.4372 11.555 24.1762 9.84137 23.9777 8.96064C23.9247 8.72011 23.8228 8.49764 23.6805 8.31168C23.5383 8.12572 23.3597 7.98162 23.1597 7.89131C20.3169 6.62857 15.6057 6.66324 15.6057 6.66324C15.6057 6.66324 10.8945 6.62857 8.0517 7.89129C7.85166 7.9816 7.67312 8.12571 7.53086 8.31167C7.38861 8.49763 7.28674 8.72009 7.23369 8.96063C7.03523 9.84135 6.77417 11.555 6.77417 14.4756Z" fill="#121212" stroke="#7B7676" stroke-width="2" stroke-linecap="round" stroke-linejoin="round"/>
<path id="Vector_3" d="M18.3232 14.299L14.2471 11.799V16.799L18.3232 14.299Z" fill="#7B7676" stroke="#7B7676" stroke-width="2" stroke-linecap="round" stroke-linejoin="round"/>
</g>
</svg>
