<svg width="20" height="21" viewBox="0 0 20 21" fill="none" xmlns="http://www.w3.org/2000/svg">
<path id="Vector" d="M12.7266 19.6806V14.2259C12.7266 13.9848 12.6308 13.7536 12.4603 13.5831C12.2899 13.4126 12.0586 13.3168 11.8175 13.3168H8.18115C7.94005 13.3168 7.70882 13.4126 7.53833 13.5831C7.36784 13.7536 7.27206 13.9848 7.27206 14.2259V19.6806C7.27206 19.9216 7.1763 20.1529 7.00583 20.3233C6.83537 20.4938 6.60417 20.5896 6.36308 20.5896L0.909204 20.5904C0.789811 20.5904 0.671585 20.5669 0.561275 20.5212C0.450966 20.4755 0.350736 20.4086 0.266307 20.3241C0.181878 20.2397 0.114904 20.1395 0.0692112 20.0292C0.023518 19.9189 -9.32752e-10 19.8007 0 19.6813V9.17441C-1.50529e-08 9.04775 0.026465 8.9225 0.0776984 8.80667C0.128932 8.69084 0.203803 8.58699 0.297513 8.50179L9.3878 0.236471C9.55513 0.0843198 9.77318 7.56507e-06 9.99934 5.09067e-10C10.2255 -7.56405e-06 10.4436 0.0842902 10.6109 0.23643L19.7024 8.50178C19.7962 8.58699 19.871 8.69084 19.9223 8.80667C19.9735 8.92251 20 9.04778 20 9.17444V19.6813C20 19.8007 19.9765 19.9189 19.9308 20.0292C19.8851 20.1395 19.8181 20.2397 19.7337 20.3241C19.6493 20.4086 19.549 20.4755 19.4387 20.5212C19.3284 20.5669 19.2102 20.5904 19.0908 20.5904L13.6356 20.5896C13.3945 20.5896 13.1633 20.4938 12.9928 20.3233C12.8224 20.1529 12.7266 19.9216 12.7266 19.6806Z" fill="white"/>
</svg>
